<svg width="1200" height="219" viewBox="0 0 1200 219" fill="none" xmlns="http://www.w3.org/2000/svg">
<path d="M147.383 57.727H96.8395L99.0805 137.992H98.1847L53.0034 57.727H0V216.017H50.5438L48.3058 140.448H49.2016L93.0377 216.017H154.63V165.042H169.615C202.489 165.042 234.474 150.064 234.474 110.94C234.474 70.027 201.818 57.727 169.615 57.727H147.383ZM154.63 99.089H165.814C173.867 99.089 181.916 101.329 181.916 111.386C181.916 120.775 173.863 124.575 165.814 124.575H154.63V99.089Z" fill="url(#paint0_linear_6_473)"/>
<path d="M201.415 6.22218C200.836 8.83478 202.471 11.432 205.091 12.0136C205.906 12.2044 206.734 12.1705 207.485 11.9582C209.142 11.4812 210.481 10.1395 210.884 8.34242C211.478 5.7329 209.831 3.13876 207.212 2.56331C206.848 2.4833 206.491 2.4433 206.137 2.4433C203.924 2.4433 201.926 3.97578 201.415 6.22526" fill="url(#paint1_linear_6_473)"/>
<path d="M282.767 117.701C282.533 120.369 284.509 122.72 287.185 122.938C287.794 122.997 288.376 122.923 288.93 122.766C290.802 122.23 292.248 120.584 292.424 118.522C292.658 115.854 290.669 113.506 288 113.276C287.865 113.266 287.726 113.26 287.591 113.26C285.1 113.26 282.97 115.168 282.764 117.704" fill="url(#paint2_linear_6_473)"/>
<path d="M287.04 94.5532C284.368 94.8116 282.416 97.1781 282.669 99.843C282.93 102.508 285.295 104.453 287.96 104.2C288.271 104.179 288.554 104.123 288.847 104.04C291.045 103.406 292.559 101.277 292.335 98.9229C292.092 96.4149 289.98 94.5316 287.511 94.5316C287.357 94.5316 287.2 94.5378 287.04 94.5532Z" fill="url(#paint3_linear_6_473)"/>
<path d="M273.452 152.049C272.313 154.474 273.335 157.367 275.761 158.521C276.869 159.038 278.076 159.099 279.178 158.785C280.464 158.416 281.591 157.517 282.219 156.216C283.37 153.788 282.339 150.898 279.913 149.757C279.245 149.433 278.534 149.286 277.835 149.286C276.028 149.286 274.289 150.307 273.452 152.046" fill="url(#paint4_linear_6_473)"/>
<path d="M264.814 43.513C262.653 45.0916 262.182 48.1258 263.777 50.2861C265.014 51.9724 267.129 52.6217 269.025 52.0801C269.558 51.9293 270.078 51.6862 270.549 51.3293C272.716 49.7475 273.184 46.7164 271.592 44.5562C270.647 43.2607 269.17 42.5714 267.68 42.5714C266.686 42.5714 265.682 42.8791 264.814 43.5161" fill="url(#paint5_linear_6_473)"/>
<path d="M219.54 11.1151C218.491 13.5769 219.648 16.4172 222.114 17.4665H222.126C223.185 17.9097 224.303 17.9466 225.328 17.6512C226.691 17.2573 227.876 16.2756 228.474 14.8724C229.505 12.4167 228.351 9.57335 225.885 8.524C225.269 8.26243 224.632 8.13934 224.001 8.13934C222.111 8.13934 220.307 9.25639 219.54 11.112" fill="url(#paint6_linear_6_473)"/>
<path d="M275.244 59.0994C272.827 60.2718 271.827 63.1706 272.996 65.5893C274.037 67.7434 276.469 68.7712 278.697 68.1311C278.962 68.0542 279.221 67.9527 279.482 67.8234C281.89 66.6571 282.893 63.7553 281.72 61.3489C280.883 59.6194 279.153 58.6132 277.355 58.6132C276.647 58.6132 275.924 58.7701 275.244 59.1024" fill="url(#paint7_linear_6_473)"/>
<path d="M282.712 76.3015C280.141 77.037 278.639 79.7142 279.378 82.293C280.101 84.8625 282.779 86.355 285.362 85.6287L285.371 85.6226C287.942 84.8902 289.432 82.216 288.696 79.6465C288.096 77.5078 286.153 76.1169 284.035 76.1169C283.598 76.1169 283.152 76.1753 282.712 76.2984" fill="url(#paint8_linear_6_473)"/>
<path d="M251.752 30.053C249.912 31.9886 249.995 35.0566 251.949 36.903C253.23 38.1278 255.022 38.4878 256.613 38.0293C257.423 37.7954 258.186 37.3615 258.796 36.7061C260.646 34.7551 260.56 31.6901 258.608 29.8499C257.669 28.9667 256.472 28.5267 255.28 28.5267C253.99 28.5267 252.707 29.0375 251.752 30.0499" fill="url(#paint9_linear_6_473)"/>
<path d="M149.092 5.44983C146.54 6.293 145.167 9.041 146.004 11.5797C146.829 14.0662 149.464 15.4356 151.955 14.7216C152.019 14.7001 152.069 14.6847 152.145 14.6632C154.685 13.8262 156.061 11.0782 155.221 8.53941C154.537 6.49918 152.644 5.20673 150.612 5.20673C150.111 5.20673 149.597 5.28673 149.092 5.45291" fill="url(#paint10_linear_6_473)"/>
<path d="M114.774 24.1012C112.69 25.7691 112.367 28.831 114.041 30.9112C115.3 32.4776 117.329 33.0592 119.151 32.536C119.761 32.3637 120.333 32.0745 120.857 31.6498C122.95 29.9696 123.279 26.92 121.593 24.8275C120.638 23.6427 119.238 23.0273 117.818 23.0273C116.75 23.0273 115.67 23.3781 114.771 24.1012" fill="url(#paint11_linear_6_473)"/>
<path d="M236.49 19.1347C235.025 21.3749 235.653 24.3845 237.909 25.8462C239.134 26.6432 240.581 26.8155 241.886 26.4432C242.973 26.1324 243.955 25.4554 244.62 24.4276C246.073 22.1904 245.445 19.1808 243.204 17.716C242.388 17.1837 241.474 16.9313 240.569 16.9313C238.977 16.9313 237.426 17.713 236.49 19.1347Z" fill="url(#paint12_linear_6_473)"/>
<path d="M100.657 37.7184C98.9142 39.7494 99.1328 42.8082 101.165 44.553C102.445 45.6639 104.15 45.984 105.668 45.5501C106.539 45.2977 107.358 44.8054 108.011 44.0576C109.756 42.0358 109.538 38.977 107.5 37.223C106.585 36.4321 105.459 36.0444 104.332 36.0444C102.971 36.0444 101.617 36.6106 100.66 37.7184" fill="url(#paint13_linear_6_473)"/>
<path d="M165.167 212.34C164.822 214.998 166.691 217.433 169.341 217.783C170.028 217.876 170.696 217.805 171.299 217.633C173.109 217.116 174.528 215.574 174.787 213.595C175.128 210.936 173.26 208.518 170.597 208.173C170.388 208.145 170.172 208.13 169.96 208.13C167.559 208.13 165.475 209.903 165.17 212.343" fill="url(#paint14_linear_6_473)"/>
<path d="M131.099 13.2355C128.744 14.5125 127.876 17.4606 129.153 19.8054C130.255 21.8426 132.604 22.7719 134.743 22.1595C135.088 22.0611 135.405 21.9287 135.725 21.7533V21.7657C138.08 20.4732 138.955 17.5406 137.689 15.1834C136.8 13.5617 135.134 12.6477 133.417 12.6477C132.635 12.6477 131.841 12.8354 131.102 13.2355" fill="url(#paint15_linear_6_473)"/>
<path d="M252.707 180.979C250.792 182.844 250.74 185.909 252.608 187.838C253.892 189.165 255.757 189.605 257.426 189.128C258.174 188.912 258.867 188.521 259.455 187.943C261.388 186.09 261.437 183.022 259.568 181.09C258.617 180.108 257.349 179.613 256.081 179.613C254.868 179.613 253.649 180.065 252.707 180.979Z" fill="url(#paint16_linear_6_473)"/>
<path d="M223.111 200.726C220.652 201.788 219.525 204.64 220.587 207.102C221.563 209.355 224.065 210.499 226.368 209.841C226.571 209.782 226.774 209.712 226.965 209.629C229.422 208.555 230.552 205.699 229.486 203.237C228.692 201.418 226.901 200.323 225.032 200.323C224.389 200.323 223.736 200.452 223.108 200.726" fill="url(#paint17_linear_6_473)"/>
<path d="M206.131 206.36C203.53 206.97 201.91 209.582 202.532 212.183C203.139 214.783 205.752 216.405 208.36 215.792C208.437 215.771 208.51 215.752 208.584 215.728C211.053 215.02 212.562 212.493 211.967 209.955C211.438 207.73 209.459 206.225 207.264 206.225C206.891 206.225 206.513 206.268 206.131 206.36Z" fill="url(#paint18_linear_6_473)"/>
<path d="M238.808 192.19C236.582 193.676 235.976 196.683 237.466 198.914C238.663 200.708 240.861 201.443 242.834 200.88C243.299 200.745 243.764 200.544 244.189 200.258C246.418 198.769 247.027 195.765 245.534 193.538C244.595 192.134 243.062 191.371 241.495 191.371C240.572 191.371 239.639 191.639 238.811 192.19" fill="url(#paint19_linear_6_473)"/>
<path d="M182.723 4.65283C182.615 7.3239 184.696 9.57646 187.374 9.69955C187.913 9.70878 188.427 9.64724 188.907 9.50568C190.868 8.93946 192.337 7.18234 192.423 5.04672C192.531 2.36334 190.447 0.110782 187.771 0C187.704 0 187.636 0 187.568 0C184.982 0 182.831 2.04946 182.72 4.65283" fill="url(#paint20_linear_6_473)"/>
<path d="M188.449 208.869C185.777 209.007 183.717 211.281 183.853 213.949C183.998 216.633 186.269 218.694 188.944 218.556C189.317 218.528 189.68 218.467 190.04 218.362C192.152 217.756 193.657 215.753 193.55 213.457C193.414 210.872 191.266 208.859 188.704 208.859C188.621 208.859 188.538 208.859 188.452 208.866" fill="url(#paint21_linear_6_473)"/>
<path d="M279.658 135.293C278.959 137.878 280.486 140.534 283.072 141.242C283.949 141.479 284.848 141.457 285.667 141.22C287.249 140.768 288.551 139.518 289.022 137.823C289.718 135.241 288.188 132.573 285.605 131.874C285.177 131.754 284.746 131.699 284.325 131.699C282.191 131.699 280.237 133.124 279.661 135.287" fill="url(#paint22_linear_6_473)"/>
<path d="M264.383 167.448C262.828 169.618 263.327 172.652 265.504 174.218C266.763 175.114 268.289 175.335 269.669 174.941C270.678 174.649 271.608 174.03 272.273 173.098C273.827 170.928 273.329 167.894 271.152 166.331C270.297 165.722 269.311 165.429 268.333 165.429C266.821 165.429 265.334 166.131 264.383 167.451" fill="url(#paint23_linear_6_473)"/>
<path d="M168.184 0.981782C165.527 1.35721 163.683 3.80364 164.062 6.45932C164.428 9.11808 166.885 10.9614 169.541 10.5798C169.769 10.5582 169.985 10.509 170.203 10.4444C172.494 9.78892 174.008 7.52098 173.669 5.09917C173.325 2.68351 171.241 0.926392 168.867 0.926392C168.643 0.926392 168.415 0.941778 168.184 0.975628" fill="url(#paint24_linear_6_473)"/>
<path d="M248.114 49.0982C246.387 50.5538 246.168 53.1418 247.637 54.865C248.776 56.2098 250.595 56.6345 252.165 56.0652C252.602 55.9021 253.024 55.6682 253.402 55.342C255.129 53.8865 255.348 51.2985 253.88 49.5752C253.07 48.6182 251.919 48.1227 250.755 48.1227C249.819 48.1227 248.883 48.4397 248.114 49.0952" fill="url(#paint25_linear_6_473)"/>
<path d="M234.969 175.84C233.178 177.225 232.845 179.791 234.233 181.579C235.351 183.019 237.247 183.512 238.873 182.918C239.26 182.776 239.639 182.582 239.981 182.315C241.766 180.93 242.102 178.363 240.713 176.575C239.904 175.529 238.694 174.981 237.472 174.981C236.598 174.981 235.717 175.261 234.972 175.837" fill="url(#paint26_linear_6_473)"/>
<path d="M208.077 24.483C207.341 26.6187 208.483 28.942 210.616 29.6805L210.625 29.6744C211.546 29.9944 212.494 29.9544 213.337 29.6467C214.464 29.2374 215.406 28.3388 215.825 27.1233C216.551 24.9908 215.403 22.6644 213.273 21.9289C212.829 21.7781 212.383 21.7073 211.943 21.7073C210.241 21.7073 208.649 22.7782 208.077 24.483Z" fill="url(#paint27_linear_6_473)"/>
<path d="M120.611 41.5866C118.958 43.1098 118.862 45.7101 120.395 47.3626C121.546 48.612 123.295 48.9812 124.797 48.4335C125.296 48.2519 125.764 47.975 126.179 47.5903C127.842 46.0517 127.943 43.4606 126.401 41.7989C125.594 40.9342 124.502 40.4941 123.403 40.4941C122.405 40.4941 121.405 40.8573 120.611 41.5896" fill="url(#paint28_linear_6_473)"/>
<path d="M148.411 23.8551C146.315 24.7137 145.315 27.1109 146.17 29.2003C147.011 31.2498 149.313 32.2407 151.37 31.4929C151.419 31.4714 151.462 31.4591 151.524 31.4406C153.611 30.582 154.608 28.1848 153.758 26.0985C153.097 24.5106 151.567 23.5536 149.957 23.5505C149.443 23.5505 148.919 23.6489 148.411 23.8582" fill="url(#paint29_linear_6_473)"/>
<path d="M222.255 183.952C220.242 184.989 219.463 187.463 220.507 189.472C221.458 191.309 223.634 192.125 225.537 191.436C225.703 191.371 225.866 191.3 226.026 191.223C228.033 190.171 228.812 187.703 227.772 185.69C227.039 184.293 225.611 183.487 224.13 183.487C223.496 183.487 222.856 183.638 222.255 183.952Z" fill="url(#paint30_linear_6_473)"/>
<path d="M133.718 31.4715C131.807 32.6901 131.25 35.2165 132.466 37.1182C133.515 38.7707 135.547 39.417 137.311 38.7738C137.594 38.6692 137.853 38.5369 138.117 38.3738V38.383C140.026 37.1582 140.586 34.638 139.383 32.7208C138.595 31.4961 137.274 30.8283 135.923 30.8283C135.168 30.8283 134.408 31.0345 133.725 31.4684" fill="url(#paint31_linear_6_473)"/>
<path d="M255.049 153.496C253.867 155.416 254.464 157.939 256.388 159.133C257.497 159.813 258.802 159.912 259.938 159.496C260.775 159.192 261.52 158.616 262.025 157.792C263.207 155.871 262.604 153.348 260.683 152.157C260.015 151.748 259.273 151.551 258.54 151.551C257.167 151.551 255.825 152.243 255.049 153.496Z" fill="url(#paint32_linear_6_473)"/>
<path d="M269.835 90.7741C267.597 91.1495 266.095 93.2574 266.467 95.4884C266.843 97.7133 268.951 99.2181 271.177 98.8457C271.439 98.8088 271.676 98.7442 271.913 98.658C273.732 97.9964 274.877 96.1131 274.548 94.1406C274.215 92.1404 272.479 90.7125 270.515 90.7125C270.29 90.7125 270.063 90.7341 269.835 90.771" fill="url(#paint33_linear_6_473)"/>
<path d="M271.694 106.481C269.465 106.481 267.628 108.272 267.603 110.521C267.566 112.783 269.364 114.645 271.633 114.666C272.147 114.685 272.63 114.589 273.092 114.423C274.637 113.86 275.761 112.386 275.782 110.641C275.825 108.379 274.012 106.524 271.75 106.481H271.694Z" fill="url(#paint34_linear_6_473)"/>
<path d="M265.113 75.6585C262.995 76.4279 261.883 78.7727 262.659 80.9053C263.419 83.0255 265.759 84.1272 267.892 83.361H267.905C270.026 82.5886 271.121 80.2468 270.352 78.1296C269.752 76.4586 268.182 75.4185 266.504 75.4185C266.042 75.4185 265.574 75.4985 265.113 75.6616" fill="url(#paint35_linear_6_473)"/>
<path d="M246.014 165.58C244.509 167.26 244.648 169.848 246.335 171.356C247.492 172.403 249.09 172.661 250.469 172.159C251.084 171.938 251.648 171.565 252.109 171.042C253.627 169.368 253.492 166.78 251.805 165.266C251.017 164.565 250.038 164.217 249.062 164.217C247.938 164.217 246.821 164.675 246.014 165.58Z" fill="url(#paint36_linear_6_473)"/>
<path d="M236.318 38.531C234.883 40.2696 235.139 42.8515 236.893 44.2916C238.044 45.2425 239.571 45.4425 240.886 44.9625C241.557 44.7224 242.169 44.307 242.647 43.7254C244.084 41.9683 243.835 39.3926 242.08 37.9586C241.32 37.337 240.399 37.0323 239.482 37.0323C238.3 37.0323 237.127 37.5432 236.314 38.531" fill="url(#paint37_linear_6_473)"/>
<path d="M261.782 139.992C260.96 142.1 261.991 144.479 264.103 145.307C265.069 145.679 266.088 145.661 267 145.332C268.065 144.941 268.96 144.119 269.407 142.987C270.238 140.879 269.194 138.5 267.089 137.685C266.596 137.488 266.095 137.398 265.593 137.398C263.961 137.398 262.419 138.386 261.782 139.992Z" fill="url(#paint38_linear_6_473)"/>
<path d="M257.811 61.6104C255.847 62.7367 255.173 65.2416 256.302 67.208C257.309 68.962 259.415 69.6821 261.252 69.0144C261.468 68.9343 261.68 68.8328 261.893 68.7066C263.85 67.5834 264.525 65.0785 263.398 63.1245C262.641 61.8012 261.258 61.0688 259.839 61.0688C259.15 61.0688 258.448 61.2443 257.808 61.6104" fill="url(#paint39_linear_6_473)"/>
<path d="M164.228 18.9655C162.015 19.4424 160.602 21.6088 161.079 23.8245C161.544 26.0432 163.723 27.4495 165.94 26.9725C166.127 26.9387 166.309 26.8864 166.488 26.8217C168.381 26.1355 169.517 24.1383 169.089 22.1197C168.679 20.2025 166.974 18.8762 165.084 18.8762C164.801 18.8762 164.517 18.907 164.231 18.9685" fill="url(#paint40_linear_6_473)"/>
<path d="M222.825 30.2374C221.72 32.213 222.428 34.7056 224.41 35.8072C225.494 36.4073 226.722 36.4688 227.8 36.0749C228.695 35.7487 229.484 35.1179 229.982 34.2163C231.078 32.2468 230.367 29.7511 228.394 28.6464C227.763 28.2956 227.082 28.1325 226.411 28.1325C224.974 28.1325 223.573 28.8926 222.825 30.2374Z" fill="url(#paint41_linear_6_473)"/>
<path d="M208.283 189.697C206.128 190.365 204.918 192.66 205.595 194.811C206.26 196.969 208.56 198.178 210.718 197.513C210.779 197.492 210.841 197.464 210.906 197.446C212.94 196.707 214.061 194.488 213.414 192.383C212.866 190.639 211.26 189.509 209.514 189.509C209.105 189.509 208.692 189.574 208.283 189.7" fill="url(#paint42_linear_6_473)"/>
<path d="M180.67 16.9929C178.41 17.0575 176.625 18.947 176.692 21.2026C176.76 23.4644 178.644 25.2338 180.907 25.1815C181.359 25.16 181.79 25.0738 182.187 24.9292C183.81 24.3384 184.936 22.772 184.887 20.9688C184.816 18.7439 182.997 16.9929 180.793 16.9929C180.753 16.9929 180.713 16.9929 180.67 16.9929Z" fill="url(#paint43_linear_6_473)"/>
<path d="M174.141 197.141C174.005 199.4 175.726 201.338 177.979 201.48C178.558 201.517 179.118 201.421 179.617 201.24C181.11 200.695 182.215 199.31 182.314 197.633C182.449 195.375 180.731 193.445 178.469 193.31C178.386 193.31 178.299 193.304 178.216 193.304C176.064 193.304 174.264 194.972 174.144 197.141" fill="url(#paint44_linear_6_473)"/>
<path d="M193.54 192.848C191.299 193.122 189.702 195.156 189.973 197.396C190.247 199.649 192.284 201.249 194.529 200.975C194.839 200.935 195.147 200.858 195.437 200.754C197.176 200.117 198.333 198.341 198.102 196.412C197.853 194.334 196.077 192.817 194.039 192.817C193.873 192.817 193.707 192.824 193.54 192.845" fill="url(#paint45_linear_6_473)"/>
<path d="M192.525 21.4273C192.189 23.6676 193.722 25.757 195.96 26.0863C196.662 26.1971 197.355 26.1263 197.973 25.8986C199.34 25.4031 200.387 24.1907 200.621 22.6551C200.965 20.4241 199.426 18.3347 197.191 18.0085C196.979 17.9715 196.77 17.9592 196.56 17.9592C194.578 17.9592 192.839 19.4117 192.525 21.4304" fill="url(#paint46_linear_6_473)"/>
<path d="M266.015 125.52C265.58 127.736 267.024 129.88 269.244 130.324C269.995 130.477 270.749 130.404 271.426 130.157C272.735 129.684 273.753 128.554 274.052 127.099C274.486 124.883 273.039 122.726 270.823 122.292C270.552 122.237 270.284 122.212 270.013 122.212C268.099 122.212 266.39 123.566 266.011 125.52" fill="url(#paint47_linear_6_473)"/>
<path d="M175.766 32.5209C173.888 32.7056 172.512 34.3858 172.697 36.2629C172.881 38.14 174.559 39.5063 176.44 39.3309C176.819 39.2848 177.173 39.1894 177.493 39.0448C178.807 38.4601 179.66 37.0876 179.509 35.589C179.331 33.8195 177.841 32.5056 176.108 32.5056C175.997 32.5056 175.88 32.5117 175.766 32.5209Z" fill="url(#paint48_linear_6_473)"/>
<path d="M185.906 35.5244C185.755 37.4107 187.156 39.0602 189.037 39.2109C189.631 39.2602 190.203 39.1617 190.705 38.9371C191.82 38.4416 192.62 37.3707 192.725 36.0752C192.888 34.195 191.478 32.5456 189.594 32.401C189.498 32.3948 189.4 32.3917 189.305 32.3917C187.547 32.3917 186.054 33.7457 185.906 35.5275" fill="url(#paint49_linear_6_473)"/>
<path d="M162.181 35.1244C160.359 35.6475 159.312 37.537 159.838 39.3556C160.356 41.1805 162.252 42.2236 164.071 41.7005C164.228 41.6605 164.376 41.6051 164.521 41.5374C166.054 40.8543 166.891 39.1218 166.417 37.4662C165.983 35.9706 164.61 34.9921 163.123 34.9921C162.812 34.9921 162.498 35.0382 162.181 35.1275" fill="url(#paint50_linear_6_473)"/>
<path d="M238.888 152.548C237.734 154.037 237.998 156.185 239.494 157.351C240.519 158.151 241.865 158.275 242.985 157.776C243.484 157.555 243.933 157.21 244.287 156.751C245.454 155.265 245.189 153.12 243.696 151.957C243.065 151.465 242.326 151.231 241.591 151.231C240.572 151.231 239.565 151.686 238.888 152.551" fill="url(#paint51_linear_6_473)"/>
<path d="M211.672 41.1035C210.866 42.8114 211.607 44.8485 213.325 45.6486C214.258 46.0856 215.286 46.0702 216.157 45.6794C216.887 45.3532 217.512 44.7839 217.872 43.9992C218.666 42.2944 217.93 40.2573 216.219 39.4541C215.754 39.2325 215.261 39.131 214.775 39.131C213.485 39.131 212.254 39.8634 211.672 41.1035Z" fill="url(#paint52_linear_6_473)"/>
<path d="M167.701 181.379C167.384 183.247 168.63 185.016 170.496 185.327L170.502 185.333C171.188 185.441 171.869 185.349 172.463 185.081C173.473 184.635 174.245 183.712 174.445 182.533C174.765 180.674 173.509 178.905 171.647 178.585C171.453 178.554 171.262 178.536 171.068 178.536C169.428 178.536 167.987 179.714 167.698 181.379" fill="url(#paint53_linear_6_473)"/>
<path d="M250.536 130.308C249.976 132.111 250.974 134.035 252.784 134.601C253.609 134.85 254.458 134.779 255.194 134.45C256.059 134.069 256.761 133.333 257.069 132.358C257.635 130.551 256.625 128.634 254.825 128.074C254.486 127.966 254.141 127.914 253.799 127.914C252.346 127.914 251.001 128.853 250.539 130.308" fill="url(#paint54_linear_6_473)"/>
<path d="M196.748 178.333C194.895 178.69 193.682 180.477 194.039 182.333C194.399 184.192 196.191 185.41 198.044 185.053C198.299 184.995 198.549 184.918 198.786 184.81C200.205 184.179 201.058 182.632 200.756 181.037C200.439 179.4 199.001 178.268 197.398 178.268C197.179 178.268 196.963 178.289 196.745 178.333" fill="url(#paint55_linear_6_473)"/>
<path d="M184.21 179.594C182.32 179.616 180.799 181.154 180.83 183.041C180.848 184.933 182.397 186.444 184.278 186.432C184.767 186.426 185.226 186.315 185.632 186.137C186.842 185.598 187.685 184.376 187.67 182.976C187.651 181.093 186.128 179.594 184.256 179.594H184.213H184.21Z" fill="url(#paint56_linear_6_473)"/>
<path d="M253.224 117.999C252.99 119.87 254.32 121.575 256.194 121.818C256.832 121.898 257.453 121.796 258.004 121.55C259.063 121.073 259.845 120.079 260.015 118.848C260.249 116.977 258.916 115.263 257.044 115.029C256.899 115.011 256.752 115.005 256.607 115.005C254.911 115.005 253.436 116.27 253.224 118.002" fill="url(#paint57_linear_6_473)"/>
<path d="M233.845 55.3515C232.491 56.6624 232.463 58.8288 233.784 60.1828C234.812 61.2353 236.354 61.4845 237.629 60.9183C237.983 60.7614 238.324 60.5398 238.62 60.2444C239.978 58.9304 240.005 56.764 238.685 55.4131C238.017 54.7207 237.127 54.376 236.234 54.376C235.375 54.376 234.51 54.6992 233.849 55.3515" fill="url(#paint58_linear_6_473)"/>
<path d="M242.662 65.211C241.089 66.2696 240.67 68.3898 241.729 69.9623C242.668 71.3656 244.466 71.8456 245.959 71.1779C246.137 71.1009 246.31 71.0055 246.479 70.8855C248.046 69.8331 248.462 67.7067 247.409 66.1465C246.744 65.1587 245.663 64.6263 244.561 64.6263C243.906 64.6263 243.244 64.8202 242.665 65.2079" fill="url(#paint59_linear_6_473)"/>
<path d="M149.286 40.1219C147.583 40.9589 146.894 43.0145 147.728 44.707C148.547 46.3626 150.523 47.055 152.192 46.3134C152.235 46.298 152.272 46.2795 152.324 46.258C154.011 45.424 154.7 43.3715 153.869 41.679C153.263 40.4696 152.05 39.768 150.791 39.768C150.286 39.768 149.769 39.8819 149.286 40.1219Z" fill="url(#paint60_linear_6_473)"/>
<path d="M199.045 37.1676C198.552 38.9893 199.642 40.8634 201.467 41.3527L201.473 41.3465C202.261 41.5527 203.046 41.4696 203.733 41.1681C204.647 40.7588 205.38 39.9556 205.66 38.9186C206.14 37.0938 205.05 35.2228 203.228 34.7366C202.936 34.6566 202.637 34.6196 202.348 34.6196C200.833 34.6196 199.448 35.6351 199.048 37.1676" fill="url(#paint61_linear_6_473)"/>
<path d="M245.713 141.95C244.838 143.617 245.488 145.688 247.16 146.569C248.126 147.073 249.216 147.076 250.139 146.664C250.82 146.365 251.408 145.836 251.78 145.122C252.654 143.454 252.002 141.386 250.33 140.506C249.822 140.242 249.28 140.119 248.751 140.119C247.514 140.119 246.325 140.783 245.71 141.95" fill="url(#paint62_linear_6_473)"/>
<path d="M220.159 169.245C218.543 170.227 218.035 172.332 219.02 173.947C219.922 175.425 221.781 175.978 223.327 175.289C223.462 175.231 223.591 175.16 223.721 175.083C225.331 174.089 225.839 171.987 224.857 170.375C224.207 169.322 223.08 168.744 221.929 168.744C221.323 168.744 220.707 168.904 220.156 169.245" fill="url(#paint63_linear_6_473)"/>
<path d="M223.404 47.2304C222.308 48.766 222.668 50.9016 224.213 52.0033C225.226 52.7264 226.513 52.8034 227.581 52.3264C228.123 52.0894 228.618 51.7048 228.976 51.1909C230.078 49.6461 229.714 47.5105 228.169 46.418C227.569 45.9934 226.876 45.7903 226.193 45.7903C225.121 45.7903 224.066 46.2888 223.404 47.2304Z" fill="url(#paint64_linear_6_473)"/>
<path d="M254.385 88.814C252.541 89.2602 251.408 91.1035 251.848 92.9375C252.294 94.7746 254.135 95.904 255.97 95.4639C256.185 95.4178 256.379 95.3532 256.573 95.267C258.051 94.6085 258.897 92.9714 258.509 91.3496C258.131 89.7833 256.727 88.7247 255.182 88.7247C254.917 88.7247 254.649 88.7524 254.385 88.817" fill="url(#paint65_linear_6_473)"/>
<path d="M249.561 76.4923C247.843 77.2585 247.052 79.2772 247.821 81.0066C248.582 82.733 250.592 83.5115 252.328 82.7514L252.334 82.7453C254.058 81.979 254.834 79.9634 254.07 78.2432C253.504 76.9631 252.257 76.203 250.943 76.203C250.481 76.203 250.01 76.2984 249.558 76.4953" fill="url(#paint66_linear_6_473)"/>
<path d="M230.278 161.743C228.868 163.001 228.742 165.159 230.001 166.568C231.017 167.707 232.623 168.005 233.947 167.417C234.258 167.279 234.563 167.094 234.831 166.851C236.241 165.596 236.367 163.435 235.111 162.023C234.434 161.263 233.495 160.878 232.553 160.878C231.746 160.878 230.933 161.164 230.281 161.743" fill="url(#paint67_linear_6_473)"/>
<path d="M256.893 101.797C255.009 101.905 253.559 103.511 253.67 105.404C253.772 107.29 255.379 108.736 257.269 108.629C257.7 108.61 258.1 108.506 258.472 108.336C259.725 107.779 260.572 106.487 260.495 105.031C260.403 103.207 258.885 101.794 257.075 101.794C257.013 101.794 256.955 101.794 256.896 101.8" fill="url(#paint68_linear_6_473)"/>
<path d="M208.852 174.846C207.091 175.526 206.217 177.511 206.91 179.265C207.59 181.022 209.576 181.899 211.333 181.216C211.383 181.194 211.435 181.173 211.484 181.151C213.137 180.416 213.941 178.502 213.282 176.785C212.756 175.44 211.469 174.612 210.102 174.612C209.686 174.612 209.265 174.686 208.852 174.849" fill="url(#paint69_linear_6_473)"/>
<path d="M225.112 149.837C224.023 150.954 224.044 152.742 225.161 153.831C226.063 154.711 227.406 154.865 228.461 154.305C228.714 154.17 228.951 154.003 229.16 153.785C230.25 152.662 230.232 150.877 229.111 149.788C228.56 149.249 227.849 148.981 227.138 148.981C226.402 148.981 225.669 149.268 225.112 149.834" fill="url(#paint70_linear_6_473)"/>
<path d="M188.15 167.217C186.589 167.34 185.423 168.698 185.555 170.258C185.681 171.812 187.048 172.972 188.6 172.852C188.997 172.821 189.372 172.701 189.696 172.529C190.662 172.015 191.29 170.962 191.192 169.805C191.072 168.325 189.837 167.208 188.378 167.208C188.301 167.208 188.227 167.208 188.147 167.217" fill="url(#paint71_linear_6_473)"/>
<path d="M172.7 46.4118C171.161 46.6733 170.126 48.1381 170.385 49.6767C170.646 51.2154 172.112 52.2463 173.648 51.9878C173.959 51.9324 174.242 51.8308 174.501 51.6954C175.55 51.1354 176.175 49.9537 175.966 48.7259C175.729 47.3442 174.531 46.3718 173.18 46.3718C173.023 46.3718 172.86 46.3841 172.703 46.4118" fill="url(#paint72_linear_6_473)"/>
<path d="M184.059 45.5133C182.517 45.5133 181.261 46.7565 181.236 48.3044C181.221 49.8677 182.471 51.1478 184.031 51.1601C184.527 51.1663 184.992 51.0524 185.389 50.837C186.279 50.3662 186.879 49.4399 186.891 48.3629C186.916 46.8027 185.66 45.5226 184.096 45.5103H184.059V45.5133Z" fill="url(#paint73_linear_6_473)"/>
<path d="M208.193 161.878C206.784 162.543 206.177 164.229 206.848 165.635C207.507 167.045 209.197 167.651 210.607 166.989L210.73 166.925C212.054 166.223 212.611 164.598 211.961 163.22C211.478 162.204 210.465 161.601 209.406 161.601C208.997 161.601 208.588 161.69 208.197 161.878" fill="url(#paint74_linear_6_473)"/>
<path d="M192.161 48.9013C191.866 50.4307 192.869 51.9139 194.402 52.2124H194.408C195.07 52.3355 195.711 52.2186 196.262 51.9293C196.991 51.5385 197.548 50.8338 197.718 49.9629C198.01 48.4366 197.003 46.9533 195.474 46.6518C195.295 46.6179 195.113 46.6025 194.938 46.6025C193.611 46.6025 192.42 47.5473 192.164 48.9013" fill="url(#paint75_linear_6_473)"/>
<path d="M212.833 55.7977C212.02 57.124 212.439 58.8657 213.778 59.6843C214.658 60.2228 215.72 60.2166 216.576 59.7612C217.01 59.5304 217.392 59.1857 217.656 58.7426C218.478 57.404 218.053 55.6623 216.717 54.8529C216.259 54.5729 215.748 54.4437 215.249 54.4437C214.295 54.4437 213.365 54.9237 212.833 55.8007" fill="url(#paint76_linear_6_473)"/>
<path d="M198.413 165.451C196.905 165.854 196.009 167.399 196.413 168.907C196.816 170.421 198.364 171.319 199.87 170.919C200.082 170.858 200.279 170.781 200.47 170.679C201.603 170.079 202.218 168.753 201.88 167.454C201.544 166.193 200.396 165.359 199.146 165.359C198.906 165.359 198.663 165.386 198.417 165.451" fill="url(#paint77_linear_6_473)"/>
<path d="M217.195 156.607C215.923 157.512 215.628 159.275 216.53 160.552C217.358 161.718 218.925 162.066 220.159 161.413C220.267 161.355 220.371 161.29 220.473 161.22C221.741 160.309 222.037 158.545 221.135 157.268C220.584 156.502 219.706 156.087 218.826 156.087C218.26 156.087 217.687 156.256 217.191 156.61" fill="url(#paint78_linear_6_473)"/>
<path d="M202.809 51.4186C202.243 52.8772 202.966 54.5174 204.432 55.0775C205.229 55.3821 206.075 55.3052 206.771 54.9359C207.356 54.6251 207.833 54.1174 208.086 53.4527C208.643 52.0002 207.919 50.3631 206.463 49.7969C206.128 49.6676 205.783 49.6061 205.451 49.6061C204.315 49.6061 203.243 50.2985 202.809 51.4155" fill="url(#paint79_linear_6_473)"/>
<path d="M231.681 141.762C230.813 143.054 231.158 144.808 232.457 145.682C233.35 146.285 234.464 146.307 235.357 145.833C235.76 145.624 236.108 145.316 236.373 144.916C237.253 143.621 236.908 141.87 235.606 140.993C235.12 140.666 234.569 140.512 234.027 140.512C233.116 140.512 232.226 140.949 231.678 141.765" fill="url(#paint80_linear_6_473)"/>
<path d="M221.917 61.8907C220.873 63.0508 220.975 64.8418 222.145 65.8788C223.053 66.6881 224.34 66.802 225.358 66.2665C225.642 66.1127 225.909 65.9096 226.137 65.6542C227.178 64.4879 227.076 62.7 225.909 61.663C225.371 61.1829 224.7 60.9429 224.026 60.9429C223.247 60.9429 222.474 61.2598 221.917 61.8907Z" fill="url(#paint81_linear_6_473)"/>
<path d="M243.601 98.8676C242.056 99.0646 240.953 100.477 241.154 102.028C241.348 103.582 242.754 104.681 244.312 104.477C244.663 104.437 244.983 104.327 245.282 104.17C246.285 103.637 246.913 102.523 246.759 101.326C246.587 99.8954 245.362 98.8461 243.949 98.8461C243.835 98.8461 243.718 98.8522 243.601 98.8676Z" fill="url(#paint82_linear_6_473)"/>
<path d="M240.781 88.3092C239.285 88.7769 238.46 90.3648 238.931 91.8511C239.402 93.3374 240.987 94.1652 242.474 93.6944C242.647 93.6452 242.807 93.5774 242.961 93.4974C244.14 92.8697 244.743 91.4726 244.331 90.1555C243.946 88.9492 242.831 88.1738 241.631 88.1738C241.351 88.1738 241.064 88.2138 240.778 88.3061" fill="url(#paint83_linear_6_473)"/>
<path d="M241.508 112.438C241.428 113.995 242.619 115.325 244.18 115.417C244.709 115.448 245.217 115.325 245.657 115.091C246.507 114.642 247.095 113.774 247.159 112.749C247.239 111.192 246.045 109.85 244.487 109.767C244.432 109.767 244.377 109.761 244.321 109.761C242.834 109.761 241.591 110.927 241.508 112.435" fill="url(#paint84_linear_6_473)"/>
<path d="M236.102 78.4188C234.723 79.1512 234.19 80.8591 234.926 82.2407C235.65 83.6194 237.358 84.1456 238.743 83.4193H238.749C240.126 82.6839 240.652 80.9791 239.922 79.6035C239.414 78.6403 238.435 78.0926 237.423 78.0926C236.976 78.0926 236.527 78.2003 236.105 78.4188" fill="url(#paint85_linear_6_473)"/>
<path d="M236.696 132.629C236.074 134.053 236.727 135.724 238.158 136.352C238.983 136.712 239.882 136.654 240.618 136.26C241.16 135.974 241.618 135.506 241.886 134.893C242.508 133.469 241.855 131.801 240.424 131.17C240.058 131.01 239.673 130.936 239.297 130.936C238.205 130.936 237.17 131.567 236.699 132.629" fill="url(#paint86_linear_6_473)"/>
<path d="M229.754 69.5161C228.517 70.4762 228.298 72.2548 229.259 73.4888C230.111 74.5874 231.626 74.8828 232.817 74.2489C232.956 74.1689 233.091 74.0827 233.23 73.975C234.455 73.018 234.677 71.2393 233.719 70.0146C233.159 69.2976 232.325 68.9191 231.484 68.9191C230.875 68.9191 230.262 69.116 229.751 69.513" fill="url(#paint87_linear_6_473)"/>
<path d="M240.005 122.744C239.645 124.264 240.581 125.791 242.102 126.157C242.797 126.314 243.496 126.206 244.084 125.892C244.78 125.526 245.309 124.877 245.51 124.055C245.873 122.535 244.934 121.012 243.413 120.655C243.192 120.603 242.97 120.575 242.748 120.575C241.474 120.575 240.319 121.455 240.005 122.744Z" fill="url(#paint88_linear_6_473)"/>
<path d="M362.769 159.979V57.4572H386.641L443.175 125.707H431.897V57.4572H460.311V159.979H436.438L379.904 91.7286H391.182V159.979H362.769Z" fill="url(#paint89_linear_6_473)"/>
<path d="M515.184 161.297C505.81 161.297 497.608 159.539 490.578 156.024C483.646 152.412 478.227 147.53 474.321 141.378C470.513 135.129 468.609 128.051 468.609 120.142C468.609 112.233 470.465 105.203 474.175 99.0516C477.983 92.8027 483.207 87.9695 489.846 84.5521C496.486 81.0371 503.955 79.2796 512.254 79.2796C520.066 79.2796 527.193 80.8907 533.637 84.1128C540.082 87.2372 545.208 91.8751 549.016 98.0264C552.824 104.178 554.728 111.647 554.728 120.435C554.728 121.411 554.679 122.534 554.581 123.803C554.483 125.073 554.386 126.244 554.288 127.318H491.457V112.672H539.496L528.951 116.773C529.048 113.161 528.365 110.036 526.9 107.4C525.533 104.764 523.581 102.713 521.042 101.249C518.601 99.7839 515.721 99.0516 512.401 99.0516C509.081 99.0516 506.152 99.7839 503.613 101.249C501.172 102.713 499.268 104.812 497.901 107.546C496.534 110.183 495.851 113.307 495.851 116.92V121.167C495.851 125.073 496.632 128.441 498.194 131.273C499.854 134.104 502.197 136.301 505.224 137.863C508.251 139.328 511.864 140.06 516.062 140.06C519.968 140.06 523.288 139.523 526.022 138.449C528.853 137.278 531.636 135.52 534.37 133.177L549.016 148.408C545.208 152.607 540.521 155.829 534.956 158.075C529.39 160.223 522.799 161.297 515.184 161.297Z" fill="url(#paint90_linear_6_473)"/>
<path d="M601.536 161.297C592.846 161.297 585.133 159.539 578.396 156.024C571.659 152.509 566.337 147.676 562.432 141.525C558.624 135.276 556.72 128.148 556.72 120.142C556.72 112.135 558.624 105.056 562.432 98.9052C566.337 92.7539 571.659 87.9695 578.396 84.5521C585.133 81.0371 592.846 79.2796 601.536 79.2796C610.226 79.2796 617.94 81.0371 624.677 84.5521C631.512 87.9695 636.833 92.7539 640.641 98.9052C644.449 105.056 646.353 112.135 646.353 120.142C646.353 128.148 644.449 135.276 640.641 141.525C636.833 147.676 631.512 152.509 624.677 156.024C617.94 159.539 610.226 161.297 601.536 161.297ZM601.536 139.181C604.758 139.181 607.59 138.449 610.031 136.985C612.57 135.52 614.571 133.372 616.036 130.54C617.5 127.611 618.233 124.145 618.233 120.142C618.233 116.139 617.5 112.77 616.036 110.036C614.571 107.205 612.57 105.056 610.031 103.592C607.59 102.127 604.758 101.395 601.536 101.395C598.412 101.395 595.58 102.127 593.042 103.592C590.601 105.056 588.599 107.205 587.037 110.036C585.572 112.77 584.84 116.139 584.84 120.142C584.84 124.145 585.572 127.611 587.037 130.54C588.599 133.372 590.601 135.52 593.042 136.985C595.58 138.449 598.412 139.181 601.536 139.181Z" fill="url(#paint91_linear_6_473)"/>
<path d="M682.238 161.297C675.5 161.297 668.91 160.516 662.466 158.953C656.119 157.391 650.993 155.438 647.087 153.095L655.436 134.055C659.146 136.301 663.491 138.107 668.47 139.474C673.45 140.744 678.332 141.378 683.116 141.378C687.803 141.378 691.025 140.89 692.783 139.914C694.638 138.937 695.565 137.619 695.565 135.959C695.565 134.397 694.687 133.274 692.929 132.591C691.269 131.81 689.024 131.224 686.192 130.833C683.458 130.443 680.431 130.003 677.112 129.515C673.792 129.027 670.423 128.392 667.006 127.611C663.686 126.732 660.61 125.463 657.779 123.803C655.045 122.046 652.848 119.702 651.188 116.773C649.528 113.844 648.698 110.134 648.698 105.642C648.698 100.565 650.163 96.0736 653.092 92.168C656.119 88.1648 660.513 85.0403 666.274 82.7946C672.034 80.4513 679.064 79.2796 687.364 79.2796C692.929 79.2796 698.543 79.8654 704.207 81.0371C709.967 82.1112 714.8 83.771 718.706 86.0167L710.358 104.91C706.452 102.664 702.547 101.151 698.641 100.37C694.735 99.491 691.025 99.0516 687.51 99.0516C682.823 99.0516 679.504 99.5886 677.551 100.663C675.696 101.737 674.768 103.055 674.768 104.617C674.768 106.179 675.598 107.4 677.258 108.279C678.918 109.06 681.115 109.694 683.849 110.183C686.68 110.573 689.756 111.012 693.076 111.501C696.395 111.891 699.715 112.526 703.035 113.405C706.452 114.283 709.528 115.602 712.262 117.359C715.093 119.019 717.339 121.313 718.999 124.243C720.659 127.074 721.489 130.736 721.489 135.227C721.489 140.109 719.975 144.503 716.948 148.408C714.019 152.314 709.626 155.438 703.767 157.782C698.006 160.125 690.83 161.297 682.238 161.297Z" fill="url(#paint92_linear_6_473)"/>
<path d="M737.93 159.979V57.4572H784.797C794.17 57.4572 802.225 58.9706 808.963 61.9974C815.797 65.0242 821.07 69.418 824.78 75.1787C828.491 80.8418 830.346 87.579 830.346 95.3901C830.346 103.104 828.491 109.792 824.78 115.455C821.07 121.118 815.797 125.512 808.963 128.636C802.225 131.663 794.17 133.177 784.797 133.177H754.04L766.929 120.581V159.979H737.93ZM766.929 123.657L754.04 110.329H783.039C789.093 110.329 793.584 109.011 796.514 106.375C799.54 103.738 801.054 100.077 801.054 95.3901C801.054 90.6058 799.54 86.8955 796.514 84.2592C793.584 81.623 789.093 80.3048 783.039 80.3048H754.04L766.929 66.977V123.657Z" fill="url(#paint93_linear_6_473)"/>
<path d="M877.002 161.297C868.312 161.297 860.599 159.539 853.862 156.024C847.124 152.509 841.803 147.676 837.898 141.525C834.09 135.276 832.186 128.148 832.186 120.142C832.186 112.135 834.09 105.056 837.898 98.9052C841.803 92.7539 847.124 87.9695 853.862 84.5521C860.599 81.0371 868.312 79.2796 877.002 79.2796C885.692 79.2796 893.406 81.0371 900.143 84.5521C906.978 87.9695 912.299 92.7539 916.107 98.9052C919.915 105.056 921.819 112.135 921.819 120.142C921.819 128.148 919.915 135.276 916.107 141.525C912.299 147.676 906.978 152.509 900.143 156.024C893.406 159.539 885.692 161.297 877.002 161.297ZM877.002 139.181C880.224 139.181 883.056 138.449 885.497 136.985C888.035 135.52 890.037 133.372 891.502 130.54C892.966 127.611 893.699 124.145 893.699 120.142C893.699 116.139 892.966 112.77 891.502 110.036C890.037 107.205 888.035 105.056 885.497 103.592C883.056 102.127 880.224 101.395 877.002 101.395C873.878 101.395 871.046 102.127 868.508 103.592C866.067 105.056 864.065 107.205 862.503 110.036C861.038 112.77 860.306 116.139 860.306 120.142C860.306 124.145 861.038 127.611 862.503 130.54C864.065 133.372 866.067 135.52 868.508 136.985C871.046 138.449 873.878 139.181 877.002 139.181Z" fill="url(#paint94_linear_6_473)"/>
<path d="M945.599 159.979L917.332 80.5977H943.695L966.103 146.944H953.508L976.795 80.5977H1000.52L1022.93 146.944H1010.63L1033.77 80.5977H1058.23L1029.96 159.979H1003.01L983.971 105.056H992.173L972.547 159.979H945.599Z" fill="url(#paint95_linear_6_473)"/>
<path d="M1100.32 161.297C1090.95 161.297 1082.74 159.539 1075.71 156.024C1068.78 152.412 1063.36 147.53 1059.46 141.378C1055.65 135.129 1053.75 128.051 1053.75 120.142C1053.75 112.233 1055.6 105.203 1059.31 99.0516C1063.12 92.8027 1068.34 87.9695 1074.98 84.5521C1081.62 81.0371 1089.09 79.2796 1097.39 79.2796C1105.2 79.2796 1112.33 80.8907 1118.77 84.1128C1125.22 87.2372 1130.34 91.8751 1134.15 98.0264C1137.96 104.178 1139.86 111.647 1139.86 120.435C1139.86 121.411 1139.81 122.534 1139.72 123.803C1139.62 125.073 1139.52 126.244 1139.42 127.318H1076.59V112.672H1124.63L1114.09 116.773C1114.18 113.161 1113.5 110.036 1112.04 107.4C1110.67 104.764 1108.72 102.713 1106.18 101.249C1103.74 99.7839 1100.86 99.0516 1097.54 99.0516C1094.22 99.0516 1091.29 99.7839 1088.75 101.249C1086.31 102.713 1084.4 104.812 1083.04 107.546C1081.67 110.183 1080.99 113.307 1080.99 116.92V121.167C1080.99 125.073 1081.77 128.441 1083.33 131.273C1084.99 134.104 1087.33 136.301 1090.36 137.863C1093.39 139.328 1097 140.06 1101.2 140.06C1105.1 140.06 1108.42 139.523 1111.16 138.449C1113.99 137.278 1116.77 135.52 1119.51 133.177L1134.15 148.408C1130.34 152.607 1125.66 155.829 1120.09 158.075C1114.53 160.223 1107.94 161.297 1100.32 161.297Z" fill="url(#paint96_linear_6_473)"/>
<path d="M1146.84 159.979V80.5977H1173.34V103.738L1169.39 97.1476C1171.73 91.1916 1175.54 86.749 1180.81 83.8198C1186.09 80.793 1192.48 79.2796 1200 79.2796V104.324C1198.73 104.129 1197.61 104.031 1196.63 104.031C1195.75 103.934 1194.78 103.885 1193.7 103.885C1188.04 103.885 1183.45 105.447 1179.94 108.571C1176.42 111.598 1174.66 116.578 1174.66 123.51V159.979H1146.84Z" fill="url(#paint97_linear_6_473)"/>
<defs>
<linearGradient id="paint0_linear_6_473" x1="-6.77905" y1="207.533" x2="192.541" y2="40.2255" gradientUnits="userSpaceOnUse">
<stop stop-color="#3657FF"/>
<stop offset="1" stop-color="#FB00C8"/>
</linearGradient>
<linearGradient id="paint1_linear_6_473" x1="282.633" y1="168.636" x2="191.072" y2="-19.3262" gradientUnits="userSpaceOnUse">
<stop stop-color="#3657FF"/>
<stop offset="1" stop-color="#FB00C8"/>
</linearGradient>
<linearGradient id="paint2_linear_6_473" x1="304.807" y1="157.835" x2="213.245" y2="-30.127" gradientUnits="userSpaceOnUse">
<stop stop-color="#3657FF"/>
<stop offset="1" stop-color="#FB00C8"/>
</linearGradient>
<linearGradient id="paint3_linear_6_473" x1="312.084" y1="154.29" x2="220.522" y2="-33.6714" gradientUnits="userSpaceOnUse">
<stop stop-color="#3657FF"/>
<stop offset="1" stop-color="#FB00C8"/>
</linearGradient>
<linearGradient id="paint4_linear_6_473" x1="282.643" y1="168.631" x2="191.081" y2="-19.331" gradientUnits="userSpaceOnUse">
<stop stop-color="#3657FF"/>
<stop offset="1" stop-color="#FB00C8"/>
</linearGradient>
<linearGradient id="paint5_linear_6_473" x1="316.768" y1="152.006" x2="225.206" y2="-35.9554" gradientUnits="userSpaceOnUse">
<stop stop-color="#3657FF"/>
<stop offset="1" stop-color="#FB00C8"/>
</linearGradient>
<linearGradient id="paint6_linear_6_473" x1="294.964" y1="162.629" x2="203.402" y2="-25.3329" gradientUnits="userSpaceOnUse">
<stop stop-color="#3657FF"/>
<stop offset="1" stop-color="#FB00C8"/>
</linearGradient>
<linearGradient id="paint7_linear_6_473" x1="318.23" y1="151.296" x2="226.668" y2="-36.666" gradientUnits="userSpaceOnUse">
<stop stop-color="#3657FF"/>
<stop offset="1" stop-color="#FB00C8"/>
</linearGradient>
<linearGradient id="paint8_linear_6_473" x1="316.768" y1="152.007" x2="225.206" y2="-35.9552" gradientUnits="userSpaceOnUse">
<stop stop-color="#3657FF"/>
<stop offset="1" stop-color="#FB00C8"/>
</linearGradient>
<linearGradient id="paint9_linear_6_473" x1="312.08" y1="154.293" x2="220.518" y2="-33.6689" gradientUnits="userSpaceOnUse">
<stop stop-color="#3657FF"/>
<stop offset="1" stop-color="#FB00C8"/>
</linearGradient>
<linearGradient id="paint10_linear_6_473" x1="236.791" y1="190.966" x2="145.229" y2="3.00419" gradientUnits="userSpaceOnUse">
<stop stop-color="#3657FF"/>
<stop offset="1" stop-color="#FB00C8"/>
</linearGradient>
<linearGradient id="paint11_linear_6_473" x1="203.33" y1="207.268" x2="111.768" y2="19.3063" gradientUnits="userSpaceOnUse">
<stop stop-color="#3657FF"/>
<stop offset="1" stop-color="#FB00C8"/>
</linearGradient>
<linearGradient id="paint12_linear_6_473" x1="304.798" y1="157.84" x2="213.236" y2="-30.1219" gradientUnits="userSpaceOnUse">
<stop stop-color="#3657FF"/>
<stop offset="1" stop-color="#FB00C8"/>
</linearGradient>
<linearGradient id="paint13_linear_6_473" x1="187.325" y1="215.064" x2="95.7631" y2="27.1023" gradientUnits="userSpaceOnUse">
<stop stop-color="#3657FF"/>
<stop offset="1" stop-color="#FB00C8"/>
</linearGradient>
<linearGradient id="paint14_linear_6_473" x1="172.444" y1="222.315" x2="80.8822" y2="34.3529" gradientUnits="userSpaceOnUse">
<stop stop-color="#3657FF"/>
<stop offset="1" stop-color="#FB00C8"/>
</linearGradient>
<linearGradient id="paint15_linear_6_473" x1="220.05" y1="199.123" x2="128.488" y2="11.1615" gradientUnits="userSpaceOnUse">
<stop stop-color="#3657FF"/>
<stop offset="1" stop-color="#FB00C8"/>
</linearGradient>
<linearGradient id="paint16_linear_6_473" x1="253.181" y1="182.987" x2="161.619" y2="-4.97529" gradientUnits="userSpaceOnUse">
<stop stop-color="#3657FF"/>
<stop offset="1" stop-color="#FB00C8"/>
</linearGradient>
<linearGradient id="paint17_linear_6_473" x1="220.066" y1="199.116" x2="128.504" y2="11.154" gradientUnits="userSpaceOnUse">
<stop stop-color="#3657FF"/>
<stop offset="1" stop-color="#FB00C8"/>
</linearGradient>
<linearGradient id="paint18_linear_6_473" x1="203.343" y1="207.264" x2="111.782" y2="19.302" gradientUnits="userSpaceOnUse">
<stop stop-color="#3657FF"/>
<stop offset="1" stop-color="#FB00C8"/>
</linearGradient>
<linearGradient id="paint19_linear_6_473" x1="236.807" y1="190.962" x2="145.245" y2="3.00003" gradientUnits="userSpaceOnUse">
<stop stop-color="#3657FF"/>
<stop offset="1" stop-color="#FB00C8"/>
</linearGradient>
<linearGradient id="paint20_linear_6_473" x1="268.776" y1="175.384" x2="177.215" y2="-12.578" gradientUnits="userSpaceOnUse">
<stop stop-color="#3657FF"/>
<stop offset="1" stop-color="#FB00C8"/>
</linearGradient>
<linearGradient id="paint21_linear_6_473" x1="187.341" y1="215.06" x2="95.7798" y2="27.0981" gradientUnits="userSpaceOnUse">
<stop stop-color="#3657FF"/>
<stop offset="1" stop-color="#FB00C8"/>
</linearGradient>
<linearGradient id="paint22_linear_6_473" x1="294.976" y1="162.624" x2="203.415" y2="-25.3379" gradientUnits="userSpaceOnUse">
<stop stop-color="#3657FF"/>
<stop offset="1" stop-color="#FB00C8"/>
</linearGradient>
<linearGradient id="paint23_linear_6_473" x1="268.79" y1="175.379" x2="177.228" y2="-12.5824" gradientUnits="userSpaceOnUse">
<stop stop-color="#3657FF"/>
<stop offset="1" stop-color="#FB00C8"/>
</linearGradient>
<linearGradient id="paint24_linear_6_473" x1="253.165" y1="182.991" x2="161.603" y2="-4.97047" gradientUnits="userSpaceOnUse">
<stop stop-color="#3657FF"/>
<stop offset="1" stop-color="#FB00C8"/>
</linearGradient>
<linearGradient id="paint25_linear_6_473" x1="301.144" y1="159.62" x2="209.582" y2="-28.3419" gradientUnits="userSpaceOnUse">
<stop stop-color="#3657FF"/>
<stop offset="1" stop-color="#FB00C8"/>
</linearGradient>
<linearGradient id="paint26_linear_6_473" x1="240.423" y1="189.2" x2="148.862" y2="1.23861" gradientUnits="userSpaceOnUse">
<stop stop-color="#3657FF"/>
<stop offset="1" stop-color="#FB00C8"/>
</linearGradient>
<linearGradient id="paint27_linear_6_473" x1="280.076" y1="169.881" x2="188.514" y2="-18.0806" gradientUnits="userSpaceOnUse">
<stop stop-color="#3657FF"/>
<stop offset="1" stop-color="#FB00C8"/>
</linearGradient>
<linearGradient id="paint28_linear_6_473" x1="201.164" y1="208.322" x2="109.602" y2="20.3603" gradientUnits="userSpaceOnUse">
<stop stop-color="#3657FF"/>
<stop offset="1" stop-color="#FB00C8"/>
</linearGradient>
<linearGradient id="paint29_linear_6_473" x1="229.185" y1="194.671" x2="137.623" y2="6.70908" gradientUnits="userSpaceOnUse">
<stop stop-color="#3657FF"/>
<stop offset="1" stop-color="#FB00C8"/>
</linearGradient>
<linearGradient id="paint30_linear_6_473" x1="226.249" y1="196.103" x2="134.687" y2="8.1414" gradientUnits="userSpaceOnUse">
<stop stop-color="#3657FF"/>
<stop offset="1" stop-color="#FB00C8"/>
</linearGradient>
<linearGradient id="paint31_linear_6_473" x1="214.999" y1="201.583" x2="123.437" y2="13.6212" gradientUnits="userSpaceOnUse">
<stop stop-color="#3657FF"/>
<stop offset="1" stop-color="#FB00C8"/>
</linearGradient>
<linearGradient id="paint32_linear_6_473" x1="266.613" y1="176.442" x2="175.052" y2="-11.5195" gradientUnits="userSpaceOnUse">
<stop stop-color="#3657FF"/>
<stop offset="1" stop-color="#FB00C8"/>
</linearGradient>
<linearGradient id="paint33_linear_6_473" x1="300.098" y1="160.13" x2="208.536" y2="-27.8317" gradientUnits="userSpaceOnUse">
<stop stop-color="#3657FF"/>
<stop offset="1" stop-color="#FB00C8"/>
</linearGradient>
<linearGradient id="paint34_linear_6_473" x1="294.979" y1="162.624" x2="203.418" y2="-25.338" gradientUnits="userSpaceOnUse">
<stop stop-color="#3657FF"/>
<stop offset="1" stop-color="#FB00C8"/>
</linearGradient>
<linearGradient id="paint35_linear_6_473" x1="302.985" y1="158.721" x2="211.423" y2="-29.2407" gradientUnits="userSpaceOnUse">
<stop stop-color="#3657FF"/>
<stop offset="1" stop-color="#FB00C8"/>
</linearGradient>
<linearGradient id="paint36_linear_6_473" x1="253.902" y1="182.634" x2="162.34" y2="-5.3274" gradientUnits="userSpaceOnUse">
<stop stop-color="#3657FF"/>
<stop offset="1" stop-color="#FB00C8"/>
</linearGradient>
<linearGradient id="paint37_linear_6_473" x1="296.414" y1="161.922" x2="204.852" y2="-26.04" gradientUnits="userSpaceOnUse">
<stop stop-color="#3657FF"/>
<stop offset="1" stop-color="#FB00C8"/>
</linearGradient>
<linearGradient id="paint38_linear_6_473" x1="277.888" y1="170.948" x2="186.326" y2="-17.0135" gradientUnits="userSpaceOnUse">
<stop stop-color="#3657FF"/>
<stop offset="1" stop-color="#FB00C8"/>
</linearGradient>
<linearGradient id="paint39_linear_6_473" x1="303.336" y1="158.551" x2="211.774" y2="-29.411" gradientUnits="userSpaceOnUse">
<stop stop-color="#3657FF"/>
<stop offset="1" stop-color="#FB00C8"/>
</linearGradient>
<linearGradient id="paint40_linear_6_473" x1="243.347" y1="187.774" x2="151.785" y2="-0.187388" gradientUnits="userSpaceOnUse">
<stop stop-color="#3657FF"/>
<stop offset="1" stop-color="#FB00C8"/>
</linearGradient>
<linearGradient id="paint41_linear_6_473" x1="289.174" y1="165.45" x2="197.612" y2="-22.5117" gradientUnits="userSpaceOnUse">
<stop stop-color="#3657FF"/>
<stop offset="1" stop-color="#FB00C8"/>
</linearGradient>
<linearGradient id="paint42_linear_6_473" x1="212.066" y1="203.012" x2="120.504" y2="15.0502" gradientUnits="userSpaceOnUse">
<stop stop-color="#3657FF"/>
<stop offset="1" stop-color="#FB00C8"/>
</linearGradient>
<linearGradient id="paint43_linear_6_473" x1="256.797" y1="181.221" x2="165.235" y2="-6.74091" gradientUnits="userSpaceOnUse">
<stop stop-color="#3657FF"/>
<stop offset="1" stop-color="#FB00C8"/>
</linearGradient>
<linearGradient id="paint44_linear_6_473" x1="185.184" y1="216.11" x2="93.6217" y2="28.1484" gradientUnits="userSpaceOnUse">
<stop stop-color="#3657FF"/>
<stop offset="1" stop-color="#FB00C8"/>
</linearGradient>
<linearGradient id="paint45_linear_6_473" x1="198.253" y1="209.742" x2="106.691" y2="21.78" gradientUnits="userSpaceOnUse">
<stop stop-color="#3657FF"/>
<stop offset="1" stop-color="#FB00C8"/>
</linearGradient>
<linearGradient id="paint46_linear_6_473" x1="269.161" y1="175.199" x2="177.6" y2="-12.7632" gradientUnits="userSpaceOnUse">
<stop stop-color="#3657FF"/>
<stop offset="1" stop-color="#FB00C8"/>
</linearGradient>
<linearGradient id="paint47_linear_6_473" x1="287.359" y1="166.335" x2="195.797" y2="-21.6267" gradientUnits="userSpaceOnUse">
<stop stop-color="#3657FF"/>
<stop offset="1" stop-color="#FB00C8"/>
</linearGradient>
<linearGradient id="paint48_linear_6_473" x1="247.009" y1="185.989" x2="155.448" y2="-1.97312" gradientUnits="userSpaceOnUse">
<stop stop-color="#3657FF"/>
<stop offset="1" stop-color="#FB00C8"/>
</linearGradient>
<linearGradient id="paint49_linear_6_473" x1="257.887" y1="180.69" x2="166.325" y2="-7.27232" gradientUnits="userSpaceOnUse">
<stop stop-color="#3657FF"/>
<stop offset="1" stop-color="#FB00C8"/>
</linearGradient>
<linearGradient id="paint50_linear_6_473" x1="235.707" y1="191.495" x2="144.145" y2="3.53306" gradientUnits="userSpaceOnUse">
<stop stop-color="#3657FF"/>
<stop offset="1" stop-color="#FB00C8"/>
</linearGradient>
<linearGradient id="paint51_linear_6_473" x1="253.184" y1="182.983" x2="161.622" y2="-4.9785" gradientUnits="userSpaceOnUse">
<stop stop-color="#3657FF"/>
<stop offset="1" stop-color="#FB00C8"/>
</linearGradient>
<linearGradient id="paint52_linear_6_473" x1="275.721" y1="172.004" x2="184.159" y2="-15.9578" gradientUnits="userSpaceOnUse">
<stop stop-color="#3657FF"/>
<stop offset="1" stop-color="#FB00C8"/>
</linearGradient>
<linearGradient id="paint53_linear_6_473" x1="185.534" y1="215.937" x2="93.9724" y2="27.9751" gradientUnits="userSpaceOnUse">
<stop stop-color="#3657FF"/>
<stop offset="1" stop-color="#FB00C8"/>
</linearGradient>
<linearGradient id="paint54_linear_6_473" x1="272.421" y1="173.611" x2="180.86" y2="-14.3504" gradientUnits="userSpaceOnUse">
<stop stop-color="#3657FF"/>
<stop offset="1" stop-color="#FB00C8"/>
</linearGradient>
<linearGradient id="paint55_linear_6_473" x1="206.975" y1="205.493" x2="115.413" y2="17.5314" gradientUnits="userSpaceOnUse">
<stop stop-color="#3657FF"/>
<stop offset="1" stop-color="#FB00C8"/>
</linearGradient>
<linearGradient id="paint56_linear_6_473" x1="195.726" y1="210.975" x2="104.164" y2="23.0126" gradientUnits="userSpaceOnUse">
<stop stop-color="#3657FF"/>
<stop offset="1" stop-color="#FB00C8"/>
</linearGradient>
<linearGradient id="paint57_linear_6_473" x1="279.707" y1="170.061" x2="188.145" y2="-17.9006" gradientUnits="userSpaceOnUse">
<stop stop-color="#3657FF"/>
<stop offset="1" stop-color="#FB00C8"/>
</linearGradient>
<linearGradient id="paint58_linear_6_473" x1="287.001" y1="166.508" x2="195.439" y2="-21.4543" gradientUnits="userSpaceOnUse">
<stop stop-color="#3657FF"/>
<stop offset="1" stop-color="#FB00C8"/>
</linearGradient>
<linearGradient id="paint59_linear_6_473" x1="289.876" y1="165.108" x2="198.314" y2="-22.8542" gradientUnits="userSpaceOnUse">
<stop stop-color="#3657FF"/>
<stop offset="1" stop-color="#FB00C8"/>
</linearGradient>
<linearGradient id="paint60_linear_6_473" x1="223.731" y1="197.329" x2="132.169" y2="9.36681" gradientUnits="userSpaceOnUse">
<stop stop-color="#3657FF"/>
<stop offset="1" stop-color="#FB00C8"/>
</linearGradient>
<linearGradient id="paint61_linear_6_473" x1="267.373" y1="176.07" x2="175.811" y2="-11.8915" gradientUnits="userSpaceOnUse">
<stop stop-color="#3657FF"/>
<stop offset="1" stop-color="#FB00C8"/>
</linearGradient>
<linearGradient id="paint62_linear_6_473" x1="263.363" y1="178.024" x2="171.801" y2="-9.93793" gradientUnits="userSpaceOnUse">
<stop stop-color="#3657FF"/>
<stop offset="1" stop-color="#FB00C8"/>
</linearGradient>
<linearGradient id="paint63_linear_6_473" x1="230.602" y1="193.983" x2="139.04" y2="6.0215" gradientUnits="userSpaceOnUse">
<stop stop-color="#3657FF"/>
<stop offset="1" stop-color="#FB00C8"/>
</linearGradient>
<linearGradient id="paint64_linear_6_473" x1="282.277" y1="168.809" x2="190.715" y2="-19.1527" gradientUnits="userSpaceOnUse">
<stop stop-color="#3657FF"/>
<stop offset="1" stop-color="#FB00C8"/>
</linearGradient>
<linearGradient id="paint65_linear_6_473" x1="288.814" y1="165.624" x2="197.253" y2="-22.3378" gradientUnits="userSpaceOnUse">
<stop stop-color="#3657FF"/>
<stop offset="1" stop-color="#FB00C8"/>
</linearGradient>
<linearGradient id="paint66_linear_6_473" x1="290.279" y1="164.913" x2="198.718" y2="-23.0489" gradientUnits="userSpaceOnUse">
<stop stop-color="#3657FF"/>
<stop offset="1" stop-color="#FB00C8"/>
</linearGradient>
<linearGradient id="paint67_linear_6_473" x1="242.245" y1="188.31" x2="150.683" y2="0.34848" gradientUnits="userSpaceOnUse">
<stop stop-color="#3657FF"/>
<stop offset="1" stop-color="#FB00C8"/>
</linearGradient>
<linearGradient id="paint68_linear_6_473" x1="285.182" y1="167.395" x2="193.621" y2="-20.5673" gradientUnits="userSpaceOnUse">
<stop stop-color="#3657FF"/>
<stop offset="1" stop-color="#FB00C8"/>
</linearGradient>
<linearGradient id="paint69_linear_6_473" x1="218.622" y1="199.82" x2="127.06" y2="11.8582" gradientUnits="userSpaceOnUse">
<stop stop-color="#3657FF"/>
<stop offset="1" stop-color="#FB00C8"/>
</linearGradient>
<linearGradient id="paint70_linear_6_473" x1="242.636" y1="188.122" x2="151.074" y2="0.160108" gradientUnits="userSpaceOnUse">
<stop stop-color="#3657FF"/>
<stop offset="1" stop-color="#FB00C8"/>
</linearGradient>
<linearGradient id="paint71_linear_6_473" x1="204.101" y1="206.893" x2="112.538" y2="18.931" gradientUnits="userSpaceOnUse">
<stop stop-color="#3657FF"/>
<stop offset="1" stop-color="#FB00C8"/>
</linearGradient>
<linearGradient id="paint72_linear_6_473" x1="239.684" y1="189.557" x2="148.122" y2="1.5956" gradientUnits="userSpaceOnUse">
<stop stop-color="#3657FF"/>
<stop offset="1" stop-color="#FB00C8"/>
</linearGradient>
<linearGradient id="paint73_linear_6_473" x1="248.782" y1="185.127" x2="157.22" y2="-2.83508" gradientUnits="userSpaceOnUse">
<stop stop-color="#3657FF"/>
<stop offset="1" stop-color="#FB00C8"/>
</linearGradient>
<linearGradient id="paint74_linear_6_473" x1="223.362" y1="197.512" x2="131.8" y2="9.55012" gradientUnits="userSpaceOnUse">
<stop stop-color="#3657FF"/>
<stop offset="1" stop-color="#FB00C8"/>
</linearGradient>
<linearGradient id="paint75_linear_6_473" x1="257.145" y1="181.051" x2="165.584" y2="-6.91095" gradientUnits="userSpaceOnUse">
<stop stop-color="#3657FF"/>
<stop offset="1" stop-color="#FB00C8"/>
</linearGradient>
<linearGradient id="paint76_linear_6_473" x1="270.273" y1="174.658" x2="178.711" y2="-13.3033" gradientUnits="userSpaceOnUse">
<stop stop-color="#3657FF"/>
<stop offset="1" stop-color="#FB00C8"/>
</linearGradient>
<linearGradient id="paint77_linear_6_473" x1="213.553" y1="202.289" x2="121.991" y2="14.3271" gradientUnits="userSpaceOnUse">
<stop stop-color="#3657FF"/>
<stop offset="1" stop-color="#FB00C8"/>
</linearGradient>
<linearGradient id="paint78_linear_6_473" x1="233.175" y1="192.729" x2="141.612" y2="4.767" gradientUnits="userSpaceOnUse">
<stop stop-color="#3657FF"/>
<stop offset="1" stop-color="#FB00C8"/>
</linearGradient>
<linearGradient id="paint79_linear_6_473" x1="264.421" y1="177.507" x2="172.86" y2="-10.4547" gradientUnits="userSpaceOnUse">
<stop stop-color="#3657FF"/>
<stop offset="1" stop-color="#FB00C8"/>
</linearGradient>
<linearGradient id="paint80_linear_6_473" x1="251.698" y1="183.706" x2="160.136" y2="-4.25566" gradientUnits="userSpaceOnUse">
<stop stop-color="#3657FF"/>
<stop offset="1" stop-color="#FB00C8"/>
</linearGradient>
<linearGradient id="paint81_linear_6_473" x1="274.966" y1="172.369" x2="183.404" y2="-15.5929" gradientUnits="userSpaceOnUse">
<stop stop-color="#3657FF"/>
<stop offset="1" stop-color="#FB00C8"/>
</linearGradient>
<linearGradient id="paint82_linear_6_473" x1="276.072" y1="171.832" x2="184.51" y2="-16.1302" gradientUnits="userSpaceOnUse">
<stop stop-color="#3657FF"/>
<stop offset="1" stop-color="#FB00C8"/>
</linearGradient>
<linearGradient id="paint83_linear_6_473" x1="278.276" y1="170.759" x2="186.714" y2="-17.2027" gradientUnits="userSpaceOnUse">
<stop stop-color="#3657FF"/>
<stop offset="1" stop-color="#FB00C8"/>
</linearGradient>
<linearGradient id="paint84_linear_6_473" x1="272.073" y1="173.781" x2="180.511" y2="-14.1803" gradientUnits="userSpaceOnUse">
<stop stop-color="#3657FF"/>
<stop offset="1" stop-color="#FB00C8"/>
</linearGradient>
<linearGradient id="paint85_linear_6_473" x1="278.977" y1="170.416" x2="187.415" y2="-17.5456" gradientUnits="userSpaceOnUse">
<stop stop-color="#3657FF"/>
<stop offset="1" stop-color="#FB00C8"/>
</linearGradient>
<linearGradient id="paint86_linear_6_473" x1="259.703" y1="179.807" x2="168.141" y2="-8.15499" gradientUnits="userSpaceOnUse">
<stop stop-color="#3657FF"/>
<stop offset="1" stop-color="#FB00C8"/>
</linearGradient>
<linearGradient id="paint87_linear_6_473" x1="277.872" y1="170.954" x2="186.31" y2="-17.0083" gradientUnits="userSpaceOnUse">
<stop stop-color="#3657FF"/>
<stop offset="1" stop-color="#FB00C8"/>
</linearGradient>
<linearGradient id="paint88_linear_6_473" x1="266.607" y1="176.445" x2="175.045" y2="-11.5168" gradientUnits="userSpaceOnUse">
<stop stop-color="#3657FF"/>
<stop offset="1" stop-color="#FB00C8"/>
</linearGradient>
<linearGradient id="paint89_linear_6_473" x1="352.516" y1="196.03" x2="725.425" y2="18.0258" gradientUnits="userSpaceOnUse">
<stop offset="0.0983483" stop-color="#3657FF"/>
<stop offset="1" stop-color="#FB00C8"/>
</linearGradient>
<linearGradient id="paint90_linear_6_473" x1="352.516" y1="196.03" x2="725.425" y2="18.0258" gradientUnits="userSpaceOnUse">
<stop offset="0.0983483" stop-color="#3657FF"/>
<stop offset="1" stop-color="#FB00C8"/>
</linearGradient>
<linearGradient id="paint91_linear_6_473" x1="352.516" y1="196.03" x2="725.425" y2="18.0258" gradientUnits="userSpaceOnUse">
<stop offset="0.0983483" stop-color="#3657FF"/>
<stop offset="1" stop-color="#FB00C8"/>
</linearGradient>
<linearGradient id="paint92_linear_6_473" x1="352.516" y1="196.03" x2="725.425" y2="18.0258" gradientUnits="userSpaceOnUse">
<stop offset="0.0983483" stop-color="#3657FF"/>
<stop offset="1" stop-color="#FB00C8"/>
</linearGradient>
<linearGradient id="paint93_linear_6_473" x1="1436.32" y1="159.979" x2="727.678" y2="18.0258" gradientUnits="userSpaceOnUse">
<stop stop-color="#3657FF"/>
<stop offset="0.912566" stop-color="#FB00C8"/>
</linearGradient>
<linearGradient id="paint94_linear_6_473" x1="1436.32" y1="159.979" x2="727.678" y2="18.0258" gradientUnits="userSpaceOnUse">
<stop stop-color="#3657FF"/>
<stop offset="0.912566" stop-color="#FB00C8"/>
</linearGradient>
<linearGradient id="paint95_linear_6_473" x1="1436.32" y1="159.979" x2="727.678" y2="18.0258" gradientUnits="userSpaceOnUse">
<stop stop-color="#3657FF"/>
<stop offset="0.912566" stop-color="#FB00C8"/>
</linearGradient>
<linearGradient id="paint96_linear_6_473" x1="1436.32" y1="159.979" x2="727.678" y2="18.0258" gradientUnits="userSpaceOnUse">
<stop stop-color="#3657FF"/>
<stop offset="0.912566" stop-color="#FB00C8"/>
</linearGradient>
<linearGradient id="paint97_linear_6_473" x1="1436.32" y1="159.979" x2="727.678" y2="18.0258" gradientUnits="userSpaceOnUse">
<stop stop-color="#3657FF"/>
<stop offset="0.912566" stop-color="#FB00C8"/>
</linearGradient>
</defs>
</svg>
